<svg xmlns="http://www.w3.org/2000/svg" class="svg-logo" width="2400" height="2400" viewBox="0 0 630 430" style="height: auto;"><rect width="630" height="630" y="-100" rx="0" ry="0" fill="#000000" fill-opacity="1"></rect><g data-element="wrapper" transform="translate(-110.25000000000318 -68.4999897003195) scale(1.35000000000001)"><g ><g data-element="icon" transform="scale(0.166015625) translate(1641.4117647058824 683.6705882352941)"><path id="color_x5F_1" d="M256.001,0C114.614,0,0,114.614,0,255.999C0,397.386,114.614,512,256.001,512    C397.385,512,512,397.386,512,255.999C512,114.614,397.385,0,256.001,0z M401.163,350.31    c-22.126,34.984-72.923,91.182-180.682,120.263l-2.415-45.653c-77.356-17.292-135.174-86.353-135.174-168.92    c0-95.602,77.503-173.105,173.108-173.105c95.603,0,173.105,77.503,173.105,173.105C429.106,290.791,418.837,323.179,401.163,350.31    z M235.441,330.406c-18.83,10.318-34.218,1.201-34.218-20.258V201.841c0-21.452,15.388-30.573,34.218-20.25l101.448,55.633    c18.822,10.324,18.822,27.224,0,37.54L235.441,330.406z" fill="#ffffff" fill-opacity="1"></path></g><path d="M191.53 220.38L191.53 222.16Q191.53 224.59 189.25 225.53L189.25 225.53Q188.56 225.81 187.80 225.81Q187.03 225.81 186.36 225.53Q185.69 225.25 185.19 224.75L185.19 224.75Q184.13 223.69 184.13 222.16L184.13 222.16L184.13 220.28Q184.13 216.44 186.88 213.75L186.88 213.75Q189.63 211.03 193.38 211.03L193.38 211.03L199.88 211.03Q201.22 211.03 202.36 211.77Q203.50 212.50 203.78 213.88L203.78 213.88L206.81 228.41Q207.03 229.50 207.39 231.14Q207.75 232.78 208.13 234.81L208.13 234.81Q208.97 239.13 209.47 243.78L209.47 243.78Q210.28 236.13 211.97 228.50L211.97 228.50L215.13 213.88Q215.38 212.63 216.38 211.94L216.38 211.94Q218.16 210.75 219.53 211.09Q220.91 211.44 221.66 212.42Q222.41 213.41 222.41 214.34Q222.41 215.28 222.28 215.75L222.28 215.75L213.34 251.06Q213 252.38 211.98 253.23Q210.97 254.09 209.86 254.09Q208.75 254.09 208.11 253.84Q207.47 253.59 206.94 253.19L206.94 253.19Q205.84 252.28 205.53 250.97L205.53 250.97L196.81 216.66L195.09 216.66Q193.59 216.66 192.81 217.47L192.81 217.47Q191.53 218.84 191.53 220.38L191.53 220.38ZM230.25 250.47L230.25 223.31Q230.25 221.78 231.03 220.94L231.03 220.94Q232.38 219.56 234 219.56L234 219.56Q235.56 219.56 236.31 220.38L236.31 220.38Q237.69 221.78 237.69 223.31L237.69 223.31L237.69 250.47Q237.69 251.97 236.91 252.75L236.91 252.75Q235.53 254.13 234.38 254.13Q233.22 254.13 232.53 253.83Q231.84 253.53 231.34 253.06L231.34 253.06Q230.25 252 230.25 250.47L230.25 250.47ZM234 205.44L234 205.44Q235.72 205.44 236.97 206.69L236.97 206.69Q238.22 207.94 238.22 209.22Q238.22 210.50 237.88 211.25Q237.53 212 236.97 212.56L236.97 212.56Q235.72 213.81 234 213.81L234 213.81Q232.28 213.81 231.03 212.56L231.03 212.56Q229.78 211.31 229.78 210.06L229.78 210.06Q229.78 207.94 231.03 206.69Q232.28 205.44 234 205.44ZM271.69 209.13L271.69 250.47Q271.69 252.84 269.44 253.81L269.44 253.81Q268.75 254.13 267.94 254.13Q267.13 254.13 266.53 253.88Q265.94 253.63 265.53 253.31L265.53 253.31Q264.97 252.81 264.73 252.34Q264.50 251.88 264.31 251.55Q264.13 251.22 263.75 251.22L263.75 251.22Q263.38 251.22 263.09 251.50L263.09 251.50L262.53 252.03Q260.50 254.13 257.69 254.13L257.69 254.13Q254.31 254.13 251.88 251.38L251.88 251.38Q249.47 248.69 249.47 244.88L249.47 244.88L249.47 229.44Q249.47 225.63 252.19 222.91Q254.91 220.19 258.72 220.19L258.72 220.19L264.28 220.19L264.28 209.13Q264.28 207.56 265.06 206.78L265.06 206.78Q266.41 205.44 267.97 205.44L267.97 205.44Q269.56 205.44 270.34 206.22L270.34 206.22Q271.69 207.56 271.69 209.13L271.69 209.13ZM256.88 229.53L256.88 245.16Q256.88 246.75 257.92 247.61Q258.97 248.47 260.14 248.47Q261.31 248.47 261.98 248.25Q262.66 248.03 263.16 247.63L263.16 247.63Q264.28 246.75 264.28 245.31L264.28 245.31L264.28 225.81L260.56 225.81Q259.03 225.81 258.22 226.63L258.22 226.63Q256.88 227.97 256.88 229.53L256.88 229.53ZM298.06 247.84Q299.25 247.84 300.06 248.69Q300.88 249.53 300.88 250.70Q300.88 251.88 300.06 252.69Q299.25 253.50 298.06 253.50L298.06 253.50L290.69 253.50Q286.88 253.50 284.16 250.78Q281.44 248.06 281.44 244.25L281.44 244.25L281.44 228.91Q281.44 224.66 284.31 222.13L284.31 222.13Q287.31 219.56 292.56 219.56L292.56 219.56Q297.75 219.56 300.75 222.13L300.75 222.13Q303.66 224.69 303.66 228.97L303.66 228.97L303.66 237.72Q303.66 239.28 302.88 240.06L302.88 240.06Q301.53 241.41 299.94 241.41L299.94 241.41L288.84 241.41L288.84 244.19Q288.84 245.78 289.63 246.53L289.63 246.53Q291 247.84 292.53 247.84L292.53 247.84L298.06 247.84ZM296.25 235.94L296.25 228.91Q296.25 227.34 295.47 226.56L295.47 226.56Q294.09 225.19 292.56 225.19L292.56 225.19Q291 225.19 290.19 226L290.19 226Q288.84 227.34 288.84 228.91L288.84 228.91L288.84 235.94L296.25 235.94ZM313.41 244.88L313.41 228.75Q313.41 224.53 316.28 222.06L316.28 222.06Q319.28 219.56 324.53 219.56L324.53 219.56Q329.72 219.56 332.72 222.06L332.72 222.06Q335.63 224.56 335.63 228.81L335.63 228.81L335.63 244.97Q335.63 251.50 329.25 253.50L329.25 253.50Q327.19 254.13 324.55 254.13Q321.91 254.13 319.84 253.48Q317.78 252.84 316.34 251.63L316.34 251.63Q313.41 249.19 313.41 244.88L313.41 244.88ZM328.22 245.16L328.22 228.91Q328.22 227.34 327.44 226.56L327.44 226.56Q326.06 225.19 324.53 225.19L324.53 225.19Q322.97 225.19 322.16 226L322.16 226Q320.81 227.34 320.81 228.91L320.81 228.91L320.81 245.16Q320.81 246.75 321.88 247.61Q322.94 248.47 324.52 248.47Q326.09 248.47 327.16 247.61Q328.22 246.75 328.22 245.16L328.22 245.16ZM357.47 217.59L357.47 217.59Q357.47 216.66 356.56 216.66L356.56 216.66L352.97 216.66Q351.59 216.66 350.84 217.50L350.84 217.50Q349.59 218.91 349.59 220.38L349.59 220.38L349.59 222.16Q349.59 224.59 347.31 225.53L347.31 225.53Q346.63 225.81 345.86 225.81Q345.09 225.81 344.42 225.53Q343.75 225.25 343.25 224.75L343.25 224.75Q342.19 223.69 342.19 222.16L342.19 222.16L342.19 220.28Q342.19 216.47 344.91 213.75Q347.63 211.03 351.44 211.03L351.44 211.03L369.75 211.03Q370.94 211.03 371.73 211.86Q372.53 212.69 372.53 213.56Q372.53 214.44 372.31 214.95Q372.09 215.47 371.72 215.84L371.72 215.84Q370.91 216.66 369.75 216.66L369.75 216.66L365.34 216.66Q363.94 216.66 363.19 217.44L363.19 217.44Q361.91 218.81 361.91 220.34L361.91 220.34L361.91 231.28L367.91 231.28Q369.06 231.28 369.69 231.88L369.69 231.88Q370.75 232.88 370.75 233.77Q370.75 234.66 370.53 235.17Q370.31 235.69 369.94 236.06L369.94 236.06Q369.09 236.91 367.91 236.91L367.91 236.91L361.91 236.91L361.91 244.25Q361.91 248.09 359.22 250.78L359.22 250.78Q356.50 253.50 352.69 253.50L352.69 253.50L349.06 253.50Q347.88 253.50 347.06 252.69Q346.25 251.88 346.25 250.70Q346.25 249.53 347.06 248.69Q347.88 247.84 349.06 247.84L349.06 247.84L350.84 247.84Q352.38 247.84 353.19 247.06L353.19 247.06Q354.53 245.78 354.53 244.19L354.53 244.19L354.53 236.91L353.16 236.91Q352 236.91 351.38 236.31L351.38 236.31Q350.31 235.31 350.31 234.42Q350.31 233.53 350.53 233.02Q350.75 232.50 351.13 232.13L351.13 232.13Q351.97 231.28 353.16 231.28L353.16 231.28L354.53 231.28L354.53 223.63Q354.53 220.66 357.19 218.16L357.19 218.16Q357.47 217.91 357.47 217.59ZM386.19 209.13L386.19 244.19Q386.19 245.78 386.97 246.53L386.97 246.53Q388.34 247.84 389.88 247.84L389.88 247.84L390.19 247.84Q391.34 247.84 391.97 248.47L391.97 248.47Q393.03 249.53 393.03 250.41Q393.03 251.28 392.81 251.80Q392.59 252.31 392.22 252.69L392.22 252.69Q391.34 253.50 390.19 253.50L390.19 253.50L388.03 253.50Q384.22 253.50 381.50 250.78Q378.78 248.06 378.78 244.25L378.78 244.25L378.78 209.13Q378.78 207.56 379.56 206.78L379.56 206.78Q380.91 205.44 382.47 205.44L382.47 205.44Q384.06 205.44 384.84 206.22L384.84 206.22Q386.19 207.56 386.19 209.13L386.19 209.13ZM400.56 250.47L400.56 223.31Q400.56 221.78 401.34 220.94L401.34 220.94Q402.69 219.56 404.31 219.56L404.31 219.56Q405.88 219.56 406.63 220.38L406.63 220.38Q408 221.78 408 223.31L408 223.31L408 250.47Q408 251.97 407.22 252.75L407.22 252.75Q405.84 254.13 404.69 254.13Q403.53 254.13 402.84 253.83Q402.16 253.53 401.66 253.06L401.66 253.06Q400.56 252 400.56 250.47L400.56 250.47ZM404.31 205.44L404.31 205.44Q406.03 205.44 407.28 206.69L407.28 206.69Q408.53 207.94 408.53 209.22Q408.53 210.50 408.19 211.25Q407.84 212 407.28 212.56L407.28 212.56Q406.03 213.81 404.31 213.81L404.31 213.81Q402.59 213.81 401.34 212.56L401.34 212.56Q400.09 211.31 400.09 210.06L400.09 210.06Q400.09 207.94 401.34 206.69Q402.59 205.44 404.31 205.44ZM419.81 250.47L419.81 242.81Q419.81 237.81 424.44 235.94L424.44 235.94Q422.13 234.69 421.31 233.41L421.31 233.41Q419.81 231.13 419.81 228.06L419.81 228.06L419.81 223.31Q419.81 221.75 420.59 220.94L420.59 220.94Q421.91 219.56 423.47 219.56L423.47 219.56Q425.03 219.56 425.84 220.38L425.84 220.38Q427.19 221.72 427.19 223.31L427.19 223.31L427.19 229.44Q427.19 230.97 427.97 231.78L427.97 231.78Q429.25 233.13 430.97 233.13L430.97 233.13Q433.31 233.13 434.28 230.88L434.28 230.88Q434.59 230.22 434.59 229.44L434.59 229.44L434.59 223.31Q434.59 220.84 436.84 219.88L436.84 219.88Q437.50 219.56 438.30 219.56Q439.09 219.56 439.75 219.86Q440.41 220.16 440.91 220.66L440.91 220.66Q441.97 221.72 441.97 223.31L441.97 223.31L441.97 228.06Q441.97 232.44 439.22 234.69L439.22 234.69Q438.38 235.38 437.34 235.94L437.34 235.94Q441.97 237.81 441.97 242.81L441.97 242.81L441.97 250.47Q441.97 252 441.19 252.78L441.19 252.78Q439.84 254.13 438.67 254.13Q437.50 254.13 436.83 253.84Q436.16 253.56 435.66 253.06L435.66 253.06Q434.59 252 434.59 250.47L434.59 250.47L434.59 242.47Q434.59 240.94 433.84 240.13L433.84 240.13Q432.50 238.75 431.33 238.75Q430.16 238.75 429.47 239.03Q428.78 239.31 428.28 239.81L428.28 239.81Q427.19 240.84 427.19 242.47L427.19 242.47L427.19 250.47Q427.19 252 426.41 252.78L426.41 252.78Q425.06 254.13 423.47 254.13L423.47 254.13Q421.88 254.13 421.13 253.34L421.13 253.34Q419.81 251.97 419.81 250.47L419.81 250.47Z" data-element="company-name" data-text-path="" data-text="VideoFlix" data-font-family="Supermercado One" fill="#ffffff" fill-opacity="1"></path><path d="M170.52 298.50L167.27 298.50L167.27 277.59L163.32 277.59L163.32 275.17L174.35 275.17L174.35 277.59L170.52 277.59L170.52 298.50ZM178.73 298.73L178.73 298.73Q177.75 298.73 177.20 298.21Q176.66 297.69 176.44 296.92Q176.23 296.14 176.23 295.33L176.23 295.33L176.23 281.85L179.31 281.85L179.31 294.41Q179.31 295.30 179.57 295.81Q179.83 296.31 180.63 296.31L180.63 296.31Q181.15 296.31 181.71 296.01Q182.27 295.71 182.79 295.27L182.79 295.27L182.79 281.85L185.87 281.85L185.87 298.50L182.79 298.50L182.79 296.86Q181.99 297.64 180.96 298.18Q179.94 298.73 178.73 298.73ZM200.16 298.73L200.16 298.73Q198.11 298.73 197.06 297.91Q196.01 297.09 195.65 295.59Q195.29 294.09 195.29 292.11L195.29 292.11L195.29 288.28Q195.29 286.17 195.67 284.69Q196.04 283.21 197.09 282.42Q198.14 281.62 200.16 281.62L200.16 281.62Q201.97 281.62 202.97 282.21Q203.96 282.80 204.33 283.97Q204.71 285.14 204.71 286.86L204.71 286.86L204.71 287.84L201.91 287.84L201.91 286.84Q201.91 285.74 201.77 285.11Q201.63 284.47 201.25 284.19Q200.88 283.90 200.19 283.90L200.19 283.90Q199.44 283.90 199.03 284.24Q198.63 284.59 198.50 285.41Q198.37 286.23 198.37 287.64L198.37 287.64L198.37 292.88Q198.37 295.02 198.78 295.74Q199.18 296.46 200.22 296.46L200.22 296.46Q200.99 296.46 201.35 296.10Q201.71 295.74 201.81 295.07Q201.91 294.41 201.91 293.58L201.91 293.58L201.91 292.22L204.71 292.22L204.71 293.37Q204.71 295.04 204.32 296.25Q203.93 297.46 202.94 298.10Q201.94 298.73 200.16 298.73ZM210.73 298.50L207.65 298.50L207.65 281.85L210.73 281.85L210.73 298.50ZM210.73 279.38L207.65 279.38L207.65 276.15L210.73 276.15L210.73 279.38ZM217.12 298.50L214.04 298.50L214.04 281.85L217.12 281.85L217.12 283.50Q217.96 282.72 218.96 282.17Q219.97 281.62 221.18 281.62L221.18 281.62Q222.19 281.62 222.72 282.14Q223.26 282.66 223.47 283.44Q223.69 284.22 223.69 285.02L223.69 285.02L223.69 298.50L220.61 298.50L220.61 285.91Q220.61 285.02 220.35 284.53Q220.09 284.04 219.28 284.04L219.28 284.04Q218.76 284.04 218.20 284.34Q217.64 284.65 217.12 285.08L217.12 285.08L217.12 298.50ZM231.29 298.73L231.29 298.73Q229.33 298.73 228.27 297.97Q227.20 297.20 226.78 295.72Q226.37 294.24 226.37 292.08L226.37 292.08L226.37 288.28Q226.37 286.06 226.80 284.59Q227.23 283.12 228.31 282.37Q229.39 281.62 231.29 281.62L231.29 281.62Q233.39 281.62 234.39 282.49Q235.38 283.35 235.70 284.98Q236.01 286.61 236.01 288.88L236.01 288.88L236.01 290.23L229.45 290.23L229.45 293.58Q229.45 294.58 229.63 295.22Q229.82 295.85 230.24 296.15Q230.66 296.46 231.32 296.46L231.32 296.46Q232.01 296.46 232.37 296.12Q232.73 295.79 232.86 295.17Q232.99 294.55 232.99 293.72L232.99 293.72L232.99 292.71L235.99 292.71L235.99 293.34Q235.99 295.85 234.92 297.29Q233.85 298.73 231.29 298.73ZM229.45 287.67L229.45 288.56L232.99 288.56L232.99 287.07Q232.99 286.03 232.87 285.32Q232.76 284.62 232.40 284.26Q232.04 283.90 231.26 283.90L231.26 283.90Q230.51 283.90 230.12 284.24Q229.74 284.59 229.59 285.41Q229.45 286.23 229.45 287.67L229.45 287.67ZM249.46 298.50L246.38 298.50L246.38 284.13L244.39 284.13L244.39 281.85L246.38 281.85L246.38 280.99Q246.38 279.43 246.63 278.33Q246.87 277.22 247.65 276.61Q248.43 276.01 249.98 276.01L249.98 276.01Q250.56 276.01 251.00 276.05Q251.45 276.09 252.00 276.21L252.00 276.21L252.00 278.46Q251.74 278.40 251.42 278.35Q251.11 278.31 250.85 278.31L250.85 278.31Q249.95 278.31 249.71 278.90Q249.46 279.49 249.46 280.47L249.46 280.47L249.46 281.85L252.00 281.85L252.00 284.13L249.46 284.13L249.46 298.50ZM256.66 298.73L256.66 298.73Q255.68 298.73 254.94 298.17Q254.19 297.61 253.75 296.73Q253.32 295.85 253.32 294.87L253.32 294.87Q253.32 293.32 253.84 292.25Q254.36 291.18 255.27 290.45Q256.17 289.72 257.37 289.17Q258.56 288.62 259.89 288.10L259.89 288.10L259.89 286.92Q259.89 285.91 259.77 285.25Q259.66 284.59 259.30 284.26Q258.94 283.93 258.22 283.93L258.22 283.93Q257.59 283.93 257.20 284.22Q256.81 284.50 256.63 285.04Q256.46 285.57 256.46 286.29L256.46 286.29L256.46 287.12L253.41 287.01Q253.47 284.24 254.68 282.93Q255.89 281.62 258.42 281.62L258.42 281.62Q260.90 281.62 261.93 282.98Q262.97 284.33 262.97 286.89L262.97 286.89L262.97 294.50Q262.97 295.27 263.01 295.99Q263.06 296.71 263.13 297.33Q263.20 297.95 263.26 298.50L263.26 298.50L260.44 298.50Q260.35 298.04 260.22 297.33Q260.09 296.63 260.03 296.05L260.03 296.05Q259.75 297.03 258.92 297.88Q258.10 298.73 256.66 298.73ZM257.87 296.08L257.87 296.08Q258.33 296.08 258.74 295.82Q259.14 295.56 259.46 295.23Q259.77 294.90 259.89 294.70L259.89 294.70L259.89 289.98Q259.17 290.38 258.54 290.78Q257.90 291.18 257.43 291.63Q256.95 292.08 256.68 292.64Q256.40 293.20 256.40 293.92L256.40 293.92Q256.40 294.93 256.78 295.50Q257.15 296.08 257.87 296.08ZM271.87 298.50L268.10 298.50L264.81 281.85L267.92 281.85L269.97 295.25L272.04 281.85L275.04 281.85L271.87 298.50ZM281.60 298.73L281.60 298.73Q279.76 298.73 278.70 297.98Q277.63 297.23 277.18 295.85Q276.74 294.47 276.74 292.60L276.74 292.60L276.74 287.76Q276.74 285.89 277.18 284.50Q277.63 283.12 278.70 282.37Q279.76 281.62 281.60 281.62L281.60 281.62Q283.45 281.62 284.50 282.37Q285.55 283.12 286.00 284.50Q286.44 285.89 286.44 287.76L286.44 287.76L286.44 292.60Q286.44 294.47 286.00 295.85Q285.55 297.23 284.50 297.98Q283.45 298.73 281.60 298.73ZM281.60 296.46L281.60 296.46Q282.50 296.46 282.86 295.94Q283.22 295.42 283.29 294.57Q283.36 293.72 283.36 292.80L283.36 292.80L283.36 287.58Q283.36 286.63 283.29 285.80Q283.22 284.96 282.86 284.43Q282.50 283.90 281.60 283.90L281.60 283.90Q280.71 283.90 280.34 284.43Q279.96 284.96 279.89 285.80Q279.82 286.63 279.82 287.58L279.82 287.58L279.82 292.80Q279.82 293.72 279.89 294.57Q279.96 295.42 280.34 295.94Q280.71 296.46 281.60 296.46ZM292.43 298.50L289.35 298.50L289.35 281.85L292.43 281.85L292.43 284.22Q293.35 282.69 294.28 282.17Q295.20 281.65 296.12 281.65L296.12 281.65Q296.23 281.65 296.34 281.65Q296.44 281.65 296.61 281.68L296.61 281.68L296.61 285.08Q296.26 284.94 295.82 284.83Q295.37 284.73 294.91 284.73L294.91 284.73Q294.19 284.73 293.60 285.06Q293.01 285.40 292.43 286.35L292.43 286.35L292.43 298.50ZM301.79 298.50L298.71 298.50L298.71 281.85L301.79 281.85L301.79 298.50ZM301.79 279.38L298.71 279.38L298.71 276.15L301.79 276.15L301.79 279.38ZM309.54 298.73L309.54 298.73Q308.24 298.73 307.45 298.24Q306.66 297.75 306.30 296.86Q305.94 295.97 305.94 294.76L305.94 294.76L305.94 283.90L304.18 283.90L304.18 281.85L305.94 281.85L305.94 276.99L309.02 276.99L309.02 281.85L311.70 281.85L311.70 283.90L309.02 283.90L309.02 294.55Q309.02 295.53 309.34 295.95Q309.66 296.37 310.55 296.37L310.55 296.37Q310.78 296.37 311.08 296.34Q311.38 296.31 311.67 296.28L311.67 296.28L311.67 298.56Q311.10 298.64 310.61 298.69Q310.12 298.73 309.54 298.73ZM318.55 298.73L318.55 298.73Q316.71 298.73 315.65 297.98Q314.58 297.23 314.13 295.85Q313.69 294.47 313.69 292.60L313.69 292.60L313.69 287.76Q313.69 285.89 314.13 284.50Q314.58 283.12 315.65 282.37Q316.71 281.62 318.55 281.62L318.55 281.62Q320.40 281.62 321.45 282.37Q322.50 283.12 322.95 284.50Q323.39 285.89 323.39 287.76L323.39 287.76L323.39 292.60Q323.39 294.47 322.95 295.85Q322.50 297.23 321.45 297.98Q320.40 298.73 318.55 298.73ZM318.55 296.46L318.55 296.46Q319.45 296.46 319.81 295.94Q320.17 295.42 320.24 294.57Q320.31 293.72 320.31 292.80L320.31 292.80L320.31 287.58Q320.31 286.63 320.24 285.80Q320.17 284.96 319.81 284.43Q319.45 283.90 318.55 283.90L318.55 283.90Q317.66 283.90 317.29 284.43Q316.91 284.96 316.84 285.80Q316.77 286.63 316.77 287.58L316.77 287.58L316.77 292.80Q316.77 293.72 316.84 294.57Q316.91 295.42 317.29 295.94Q317.66 296.46 318.55 296.46ZM336.67 298.73L336.67 298.73Q334.63 298.73 333.39 297.45Q332.15 296.17 331.98 294.06L331.98 294.06L334.54 293.29Q334.77 294.87 335.32 295.66Q335.86 296.46 336.93 296.46L336.93 296.46Q337.76 296.46 338.20 295.98Q338.63 295.50 338.63 294.70L338.63 294.70Q338.63 293.98 338.31 293.40Q337.99 292.83 337.27 292.22L337.27 292.22L334.42 289.77Q333.56 289.02 332.97 288.10Q332.38 287.18 332.38 285.71L332.38 285.71Q332.38 284.39 332.91 283.48Q333.44 282.57 334.41 282.10Q335.37 281.62 336.67 281.62L336.67 281.62Q338.66 281.62 339.71 282.90Q340.76 284.19 340.90 286.00L340.90 286.00L338.83 286.78Q338.71 285.91 338.48 285.27Q338.25 284.62 337.85 284.26Q337.45 283.90 336.79 283.90L336.79 283.90Q336.04 283.90 335.59 284.40Q335.14 284.91 335.14 285.60L335.14 285.60Q335.14 286.03 335.33 286.45Q335.52 286.86 335.98 287.27L335.98 287.27L338.92 289.98Q339.52 290.52 340.05 291.16Q340.59 291.79 340.93 292.60Q341.28 293.40 341.28 294.47L341.28 294.47Q341.28 295.88 340.70 296.83Q340.13 297.78 339.09 298.26Q338.05 298.73 336.67 298.73ZM346.87 298.50L343.78 298.50L343.78 281.85L346.87 281.85L346.87 298.50ZM346.87 279.38L343.78 279.38L343.78 276.15L346.87 276.15L346.87 279.38ZM354.79 298.73L354.79 298.73Q352.83 298.73 351.76 297.97Q350.70 297.20 350.28 295.72Q349.86 294.24 349.86 292.08L349.86 292.08L349.86 288.28Q349.86 286.06 350.29 284.59Q350.72 283.12 351.80 282.37Q352.88 281.62 354.79 281.62L354.79 281.62Q356.89 281.62 357.88 282.49Q358.87 283.35 359.19 284.98Q359.51 286.61 359.51 288.88L359.51 288.88L359.51 290.23L352.94 290.23L352.94 293.58Q352.94 294.58 353.13 295.22Q353.32 295.85 353.73 296.15Q354.15 296.46 354.81 296.46L354.81 296.46Q355.51 296.46 355.87 296.12Q356.23 295.79 356.35 295.17Q356.48 294.55 356.48 293.72L356.48 293.72L356.48 292.71L359.48 292.71L359.48 293.34Q359.48 295.85 358.41 297.29Q357.35 298.73 354.79 298.73ZM352.94 287.67L352.94 288.56L356.48 288.56L356.48 287.07Q356.48 286.03 356.37 285.32Q356.25 284.62 355.89 284.26Q355.53 283.90 354.76 283.90L354.76 283.90Q354.01 283.90 353.62 284.24Q353.23 284.59 353.09 285.41Q352.94 286.23 352.94 287.67L352.94 287.67ZM365.15 298.50L362.30 298.50L362.30 281.85L365.15 281.85L365.15 283.44Q365.99 282.49 367.00 282.03Q368.00 281.57 369.07 281.57L369.07 281.57Q369.99 281.57 370.73 282.03Q371.46 282.49 371.78 283.67L371.78 283.67Q372.67 282.57 373.72 282.07Q374.77 281.57 375.92 281.57L375.92 281.57Q376.73 281.57 377.39 281.95Q378.06 282.34 378.46 283.19Q378.86 284.04 378.86 285.42L378.86 285.42L378.86 298.50L376.04 298.50L376.04 285.63Q376.04 284.42 375.65 284.00Q375.26 283.58 374.60 283.58L374.60 283.58Q373.97 283.58 373.27 283.94Q372.58 284.30 372.01 284.94L372.01 284.94Q372.01 285.05 372.01 285.17Q372.01 285.28 372.01 285.42L372.01 285.42L372.01 298.50L369.19 298.50L369.19 285.63Q369.19 284.42 368.80 284.00Q368.41 283.58 367.75 283.58L367.75 283.58Q367.11 283.58 366.43 283.94Q365.76 284.30 365.15 284.94L365.15 284.94L365.15 298.50ZM384.97 303.97L381.89 303.97L381.89 281.85L384.97 281.85L384.97 283.18Q385.51 282.54 386.29 282.08Q387.07 281.62 388.14 281.62L388.14 281.62Q389.43 281.62 390.19 282.30Q390.96 282.98 391.33 284.00Q391.71 285.02 391.82 286.07Q391.94 287.12 391.94 287.87L391.94 287.87L391.94 291.90Q391.94 293.66 391.59 295.23Q391.25 296.80 390.34 297.77Q389.43 298.73 387.79 298.73L387.79 298.73Q386.90 298.73 386.21 298.28Q385.51 297.84 384.97 297.26L384.97 297.26L384.97 303.97ZM387.19 296.31L387.19 296.31Q387.99 296.31 388.34 295.72Q388.68 295.13 388.77 294.12Q388.86 293.11 388.86 291.90L388.86 291.90L388.86 287.87Q388.86 286.84 388.74 285.96Q388.63 285.08 388.25 284.56Q387.88 284.04 387.07 284.04L387.07 284.04Q386.47 284.04 385.92 284.30Q385.37 284.56 384.97 284.91L384.97 284.91L384.97 295.56Q385.40 295.88 385.95 296.10Q386.49 296.31 387.19 296.31ZM397.90 298.50L394.82 298.50L394.82 281.85L397.90 281.85L397.90 284.22Q398.82 282.69 399.74 282.17Q400.66 281.65 401.59 281.65L401.59 281.65Q401.70 281.65 401.80 281.65Q401.90 281.65 402.07 281.68L402.07 281.68L402.07 285.08Q401.73 284.94 401.28 284.83Q400.84 284.73 400.38 284.73L400.38 284.73Q399.66 284.73 399.07 285.06Q398.47 285.40 397.90 286.35L397.90 286.35L397.90 298.50ZM408.58 298.73L408.58 298.73Q406.63 298.73 405.56 297.97Q404.49 297.20 404.08 295.72Q403.66 294.24 403.66 292.08L403.66 292.08L403.66 288.28Q403.66 286.06 404.09 284.59Q404.52 283.12 405.60 282.37Q406.68 281.62 408.58 281.62L408.58 281.62Q410.69 281.62 411.68 282.49Q412.67 283.35 412.99 284.98Q413.31 286.61 413.31 288.88L413.31 288.88L413.31 290.23L406.74 290.23L406.74 293.58Q406.74 294.58 406.93 295.22Q407.11 295.85 407.53 296.15Q407.95 296.46 408.61 296.46L408.61 296.46Q409.30 296.46 409.66 296.12Q410.02 295.79 410.15 295.17Q410.28 294.55 410.28 293.72L410.28 293.72L410.28 292.71L413.28 292.71L413.28 293.34Q413.28 295.85 412.21 297.29Q411.15 298.73 408.58 298.73ZM406.74 287.67L406.74 288.56L410.28 288.56L410.28 287.07Q410.28 286.03 410.17 285.32Q410.05 284.62 409.69 284.26Q409.33 283.90 408.55 283.90L408.55 283.90Q407.81 283.90 407.42 284.24Q407.03 284.59 406.88 285.41Q406.74 286.23 406.74 287.67L406.74 287.67ZM425.69 298.73L425.69 298.73Q424.71 298.73 423.96 298.17Q423.21 297.61 422.78 296.73Q422.35 295.85 422.35 294.87L422.35 294.87Q422.35 293.32 422.87 292.25Q423.39 291.18 424.29 290.45Q425.20 289.72 426.40 289.17Q427.59 288.62 428.92 288.10L428.92 288.10L428.92 286.92Q428.92 285.91 428.80 285.25Q428.69 284.59 428.33 284.26Q427.97 283.93 427.25 283.93L427.25 283.93Q426.61 283.93 426.22 284.22Q425.83 284.50 425.66 285.04Q425.49 285.57 425.49 286.29L425.49 286.29L425.49 287.12L422.44 287.01Q422.49 284.24 423.70 282.93Q424.91 281.62 427.45 281.62L427.45 281.62Q429.92 281.62 430.96 282.98Q432.00 284.33 432.00 286.89L432.00 286.89L432.00 294.50Q432.00 295.27 432.04 295.99Q432.08 296.71 432.16 297.33Q432.23 297.95 432.29 298.50L432.29 298.50L429.46 298.50Q429.38 298.04 429.25 297.33Q429.12 296.63 429.06 296.05L429.06 296.05Q428.77 297.03 427.95 297.88Q427.13 298.73 425.69 298.73ZM426.90 296.08L426.90 296.08Q427.36 296.08 427.76 295.82Q428.17 295.56 428.48 295.23Q428.80 294.90 428.92 294.70L428.92 294.70L428.92 289.98Q428.20 290.38 427.56 290.78Q426.93 291.18 426.45 291.63Q425.98 292.08 425.71 292.64Q425.43 293.20 425.43 293.92L425.43 293.92Q425.43 294.93 425.81 295.50Q426.18 296.08 426.90 296.08ZM444.61 303.97L441.53 303.97L441.53 297.43Q440.98 298.01 440.34 298.37Q439.69 298.73 438.85 298.73L438.85 298.73Q436.75 298.73 435.71 297.19Q434.68 295.65 434.68 291.96L434.68 291.96L434.68 288.74Q434.68 286.84 434.99 285.21Q435.31 283.58 436.19 282.60Q437.07 281.62 438.77 281.62L438.77 281.62Q439.60 281.62 440.29 282.00Q440.98 282.37 441.53 282.92L441.53 282.92L441.53 281.85L444.61 281.85L444.61 303.97ZM439.63 296.31L439.63 296.31Q440.06 296.31 440.57 296.15Q441.07 295.99 441.53 295.68L441.53 295.68L441.53 284.76Q441.13 284.47 440.64 284.26Q440.15 284.04 439.57 284.04L439.57 284.04Q438.51 284.04 438.13 285.06Q437.76 286.09 437.76 287.53L437.76 287.53L437.76 292.22Q437.76 293.37 437.89 294.31Q438.02 295.25 438.42 295.78Q438.82 296.31 439.63 296.31ZM450.11 298.73L450.11 298.73Q449.13 298.73 448.59 298.21Q448.04 297.69 447.82 296.92Q447.61 296.14 447.61 295.33L447.61 295.33L447.61 281.85L450.69 281.85L450.69 294.41Q450.69 295.30 450.95 295.81Q451.21 296.31 452.01 296.31L452.01 296.31Q452.53 296.31 453.09 296.01Q453.66 295.71 454.17 295.27L454.17 295.27L454.17 281.85L457.26 281.85L457.26 298.50L454.17 298.50L454.17 296.86Q453.37 297.64 452.35 298.18Q451.32 298.73 450.11 298.73ZM463.68 298.50L460.60 298.50L460.60 281.85L463.68 281.85L463.68 298.50ZM462.90 280.47L461.35 280.47L463.04 274.77L466.13 274.77L462.90 280.47Z" data-element="slogan" data-text-path="" data-text="Tu cine favorito siempre aquí" data-font-family="Oswald" fill="#ffffff" fill-opacity="1"></path></g></g></svg>